<?xml version="1.0" encoding="UTF-8" standalone="no"?>
<!-- Created with Inkscape (http://www.inkscape.org/) -->

<svg
   xmlns:dc="http://purl.org/dc/elements/1.1/"
   xmlns:cc="http://creativecommons.org/ns#"
   xmlns:rdf="http://www.w3.org/1999/02/22-rdf-syntax-ns#"
   xmlns:svg="http://www.w3.org/2000/svg"
   xmlns="http://www.w3.org/2000/svg"
   xmlns:sodipodi="http://sodipodi.sourceforge.net/DTD/sodipodi-0.dtd"
   xmlns:inkscape="http://www.inkscape.org/namespaces/inkscape"
   width="210mm"
   height="297mm"
   viewBox="0 0 210 297"
   version="1.1"
   id="svg8"
   inkscape:version="0.92.1 r15371"
   sodipodi:docname="drawing.svg"
   inkscape:export-filename="/home/stefan/wfs/drawing.svg.png"
   inkscape:export-xdpi="96"
   inkscape:export-ydpi="96">
  <defs
     id="defs2" />
  <sodipodi:namedview
     id="base"
     pagecolor="#ffffff"
     bordercolor="#666666"
     borderopacity="1.0"
     inkscape:pageopacity="0.0"
     inkscape:pageshadow="2"
     inkscape:zoom="0.35"
     inkscape:cx="-70"
     inkscape:cy="560"
     inkscape:document-units="mm"
     inkscape:current-layer="layer2"
     showgrid="false"
     inkscape:window-width="1920"
     inkscape:window-height="1031"
     inkscape:window-x="0"
     inkscape:window-y="0"
     inkscape:window-maximized="1" />
  <metadata
     id="metadata5">
    <rdf:RDF>
      <cc:Work
         rdf:about="">
        <dc:format>image/svg+xml</dc:format>
        <dc:type
           rdf:resource="http://purl.org/dc/dcmitype/StillImage" />
        <dc:title></dc:title>
      </cc:Work>
    </rdf:RDF>
  </metadata>
  <g
     inkscape:groupmode="layer"
     id="layer2"
     inkscape:label="Layer 2"
     style="opacity:0.5">
    <path
       style="fill:#0000ff;stroke:#000000;stroke-width:0.49259868px;stroke-linecap:butt;stroke-linejoin:miter;stroke-opacity:1"
       d="m 23.13103,137.44967 c -1.888533,-0.93236 -3.777012,-1.86473 -5.665491,-2.79709 0,-0.46617 0.333823,-1.06889 0,-1.39854 -0.333823,-0.32963 -1.082514,0.32965 -1.416374,0 -0.333823,-0.32963 0.33386,-1.06889 0,-1.39853 -0.333823,-0.32964 -1.082523,0.32964 -1.416345,0 -2.841178,-2.80542 2.841151,0.009 0,-2.79708 -0.333823,-0.32964 -1.082522,0.32963 -1.416364,0 -0.333861,-0.32964 0.211139,-0.98158 0,-1.39854 -0.298617,-0.58968 -1.117764,-0.80885 -1.416382,-1.39854 -0.211138,-0.41696 0.333823,-1.0689 0,-1.39853 -0.333823,-0.32965 -1.082522,0.32963 -1.416345,0 -0.6677021,-0.65927 0.667646,-2.1378 0,-2.79708 -0.333879,-0.32964 -1.0825221,0.32964 -1.4164014,0 -0.6676462,-0.65927 0.4223143,-1.96315 0,-2.79707 -0.29858,-0.58968 -1.1177647,-0.80886 -1.4163446,-1.39855 -0.4891835,-0.96601 0.4971653,-6.50177 0,-6.99269 -1.8884788,-1.86472 -1.4164008,2.3309 -1.4164008,-1.39853 0,-0.33918 0.045526,-4.15064 0,-4.19562 -0.3338231,-0.32963 -1.0825224,0.32964 -1.4163455,0 -0.064262,-0.0634 0,-6.333277 0,-6.992687 0,-0.466179 -0.3338231,-1.068901 0,-1.398536 0.3338231,-0.329641 1.0825224,0.329635 1.4163455,0 0.7081912,-0.699269 -0.7081543,-3.496347 0,-4.195615 0.3338793,-0.329636 1.0825777,0.32964 1.4164008,0 0.6677023,-0.659277 -0.6677024,-2.137797 0,-2.797073 0.3338231,-0.329642 1.0825215,0.329635 1.4163446,0 2.9305494,-2.89363 -4.4782157,0.11311 1.4164014,-2.797079 0.422258,-0.208482 1.082522,0.329636 1.416345,0 0.667683,-0.659277 -0.667703,-2.1378 0,-2.797078 0.333823,-0.329636 1.082521,0.329641 1.416382,0 0.333842,-0.329636 -0.333861,-1.068895 0,-1.398535 2.930512,-2.893626 -0.114478,4.421841 2.832709,-1.398538 0.211176,-0.416966 -0.333823,-1.068899 0,-1.398537 0.667676,-0.659283 2.165073,0.659278 2.832738,0 0.33386,-0.329641 -0.333823,-1.0689 0,-1.398542 3.776994,0 -0.472134,0.46618 1.416382,-1.398537 0.667647,-0.659276 2.165044,0.659278 2.832745,0 0.333824,-0.329641 -0.333878,-1.0689 0,-1.398535 3.776958,0 -0.472133,0.466179 1.416346,-1.398541 0.667702,-0.659278 2.165044,0.659277 2.832745,0 0.333823,-0.329638 -0.333823,-1.068897 0,-1.398537 0.667703,-0.659277 2.165044,0.659276 2.832747,0 0.333823,-0.329636 -0.33388,-1.0689 0,-1.398538 0.387502,-0.382672 4.8971,0.379344 5.665435,0 0.597198,-0.294838 0.819185,-1.103702 1.416401,-1.398536 0.422258,-0.208483 0.944211,0 1.416345,0 0.472134,0 0.944268,0 1.416401,0 0.343491,0 4.203524,0.04499 4.249091,0 0.333823,-0.32964 -0.333823,-1.068899 0,-1.39854 0.333823,-0.329638 0.944249,0 1.416344,0 2.360613,0 4.721262,0 7.081874,0 0.343492,0 4.203544,-0.04499 4.249091,0 0.333823,0.329641 -0.333823,1.0689 0,1.39854 0.708192,0.699269 3.5409,-0.699274 4.249091,0 0.333823,0.329636 -0.333823,1.068895 0,1.398536 0.667703,0.659279 2.165044,-0.659277 2.832746,0 0.333824,0.329638 -0.333823,1.068902 0,1.398538 0.667703,0.659276 1.988172,-0.416961 2.83275,0 0.597192,0.294838 0.819184,1.103703 1.41634,1.398537 0.422316,0.208482 1.082522,-0.329638 1.416402,0 0.333828,0.329641 -0.33388,1.0689 0,1.398541 0.333828,0.329635 1.082522,-0.329641 1.416349,0 0.333819,0.329635 -0.333827,1.068894 0,1.398535 0.333819,0.329638 1.082522,-0.329641 1.416375,0 0.333828,0.329638 -0.333853,1.068902 0,1.398537 0.333828,0.329642 1.082548,-0.329635 1.416367,0 0.333819,0.329642 -0.333819,1.068901 0,1.398542 0.333819,0.329638 1.082521,-0.329641 1.416349,0 0.333854,0.329638 -0.333828,1.068897 0,1.398537 0.333854,0.329635 0.994122,-0.208482 1.416375,0 0.757636,0.374057 2.07508,2.423016 2.832751,2.797073 0.422254,0.208484 0.944212,0 1.41634,0 0.472137,0.466179 0.81921,1.103703 1.416402,1.398541 0.422262,0.208479 1.082521,-0.329641 1.416349,0 0.333818,0.329637 -0.333828,1.068896 0,1.398537 0.333818,0.329636 1.082521,-0.329641 1.41634,0 0.33388,0.329636 0.472137,1.398538 0,1.398538 -0.667646,0 -1.117762,-0.808861 -1.41634,-1.398538 -0.183054,-0.361595 0,-7.399942 0,-8.39123 0,-4.195613 0,-8.391224 0,-12.586839 0,-0.466179 0,-0.932362 0,-1.398541 0,-0.466179 -0.333828,-1.068896 0,-1.398537 0.333818,-0.329636 1.082521,0.329641 1.41634,0 0.667708,-0.659277 -0.667646,-2.137795 0,-2.797074 0.33388,-0.32964 1.082583,0.329638 1.416402,0 0.333827,-0.32964 -0.333819,-1.068899 0,-1.39854 0.333827,-0.329636 1.082521,0.329641 1.416349,0 0.33388,-0.329636 -0.333828,-1.0689 0,-1.398537 0.33388,-0.329642 1.082521,0.329637 1.416401,0 0.333819,-0.329642 -0.211144,-0.981575 0,-1.398536 0.298578,-0.589678 1.117762,-0.808864 1.41634,-1.398543 0.211145,-0.416961 -0.333818,-1.068896 0,-1.398538 0.333828,-0.329637 0.994087,0.208483 1.416402,0 0.597139,-0.294838 0.819149,-1.103698 1.416349,-1.398537 0.422254,-0.208482 1.082522,0.329638 1.41634,0 0.33388,-0.329641 -0.333818,-1.0689 0,-1.398535 0.33388,-0.32964 0.944274,0 1.416402,0 2.360614,0 4.721229,0 7.081839,0 3.77696,0 7.55395,0 11.33091,0 0.47213,0 0.94426,0 1.4164,0 0.47213,0 1.08252,-0.32964 1.41634,0 0.33388,0.329635 -0.33382,1.068894 0,1.398535 0.66771,0.659278 2.16504,-0.659276 2.83275,0 0.33382,0.329638 -0.33383,1.0689 0,1.398537 0.6677,0.659279 2.16504,-0.659277 2.83274,0 0.33383,0.329642 -0.33382,1.068903 0,1.398538 0.33383,0.329641 1.08252,-0.329635 1.41635,0 0.33388,0.329641 -0.33383,1.068902 0,1.398543 0.33388,0.329635 1.08258,-0.329641 1.4164,0 0.33382,0.329635 -0.33382,1.068894 0,1.398536 0.66768,0.659278 2.16505,-0.659277 2.83274,0 0.33383,0.329637 -0.33388,1.068901 0,1.398537 0.33383,0.329641 1.08253,-0.329636 1.41635,0 0.33382,0.329641 -0.33382,1.0689 0,1.39854 0.33382,0.329638 0.99409,-0.208482 1.41639,0 0.37607,0.185665 4.06106,3.824285 4.24909,4.195611 0.97684,1.929083 -1.71532,1.250956 1.41634,2.797079 0.42231,0.208482 1.08254,-0.329642 1.4164,0 0.33382,0.329635 -0.21112,0.981574 0,1.398537 0.59716,1.179352 2.23555,1.617723 2.83274,2.797076 0.21115,0.416961 -0.33387,1.068902 0,1.398538 0.33383,0.32964 1.08252,-0.329636 1.41635,0 0.33382,0.32964 -0.33383,1.068899 0,1.398537 0.33382,0.329641 1.08252,-0.329638 1.41635,0 0.33387,0.329641 -0.21113,0.981575 0,1.398541 0.29863,0.589671 1.11778,0.808859 1.41639,1.398535 0.21115,0.416963 -0.33382,1.068902 0,1.398537 0.33383,0.329642 1.08252,-0.329635 1.41635,0 0.33388,0.329642 -0.33383,1.068901 0,1.398542 0.33388,0.329638 1.08252,-0.329641 1.4164,0 0.66765,0.659278 -0.6677,2.137796 0,2.797075 0.33382,0.32964 1.08253,-0.329638 1.41634,0 0.66771,0.659276 -0.66769,2.1378 0,2.797076 0.33383,0.329637 1.08253,-0.329641 1.41641,0 0.33382,0.329637 0,0.932358 0,1.398537 0,0.466179 0,0.932358 0,1.398538 0,0.339185 -0.0455,4.150639 0,4.195614 0.33382,0.32964 1.08252,-0.329636 1.41634,0 0.33382,0.32964 0.47214,1.398536 0,1.398536 -0.47213,0 0.33382,-1.068896 0,-1.398536 -0.33382,-0.329636 -1.08252,0.32964 -1.41634,0 -0.0569,-0.05628 0,-5.080557 0,-5.594152 0,-0.466179 -0.33388,-1.0689 0,-1.398537 0.66764,-0.659276 2.16504,0.659278 2.83268,0 0.33388,-0.329641 -0.33381,-1.0689 0,-1.398541 0.7082,-0.699268 3.54095,0.699275 4.24916,0 0.33382,-0.329636 -0.33388,-1.068895 0,-1.398535 0.66764,-0.659279 1.98815,0.416964 2.83272,0 0.59717,-0.294841 0.81915,-1.1037 1.41635,-1.398538 0.84459,-0.416966 1.98817,0.416961 2.83274,0 0.59722,-0.294838 0.8192,-1.103703 1.41635,-1.398537 0.84459,-0.416965 2.16506,0.659278 2.83274,0 0.33383,-0.329641 -0.33382,-1.0689 0,-1.398542 0.38756,-0.382671 4.89713,0.379345 5.6655,0 0.5972,-0.294837 0.81918,-1.103696 1.41634,-1.398537 0.43109,-0.212809 3.61124,0 4.24915,0 0.7406,0 5.29303,-0.183856 5.66543,0 0.5972,0.294841 0.81919,1.1037 1.4164,1.398537 0.42226,0.208483 1.08252,-0.329635 1.41635,0 0.33382,0.329642 -0.33383,1.068901 0,1.398542 0.33382,0.329638 1.08252,-0.329641 1.41638,0 2.93051,2.893626 -4.47821,-0.113111 1.41634,2.797075 0.42228,0.208481 1.08254,-0.329638 1.41637,0 0.33386,0.32964 -0.21113,0.981574 0,1.398535 0.5972,1.179355 2.23559,1.617725 2.83273,2.797078 0.21114,0.416961 -0.33382,1.068901 0,1.398538 0.33388,0.32964 1.08252,-0.329637 1.4164,0 0.33382,0.32964 -0.33388,1.068899 0,1.398541 0.33382,0.329635 1.08252,-0.329642 1.41635,0 0.66769,0.659276 -0.66769,2.137796 0,2.797073 0.33381,0.32964 1.08252,-0.329636 1.4164,0 0.33382,0.32964 -0.33388,1.068899 0,1.398536 0.33382,0.329642 1.08252,-0.329637 1.41634,0 0.33383,0.329642 -0.33382,1.068901 0,1.398542 0.33383,0.329636 1.08252,-0.329641 1.41635,0 0.70821,0.699268 -0.70814,3.496342 0,4.195616 0.33388,0.329634 1.08257,-0.329642 1.4164,0 0.0643,0.06338 0,6.333274 0,6.992684 0,0.33919 0.0455,4.15064 0,4.19561 -0.33383,0.32964 -1.08252,-0.32963 -1.4164,0 -0.33383,0.32964 0.33388,1.0689 0,1.39854 -0.33383,0.32964 -1.08252,-0.32964 -1.41635,0 -0.33382,0.32964 0.21113,0.98158 0,1.39854 -0.29858,0.58968 -0.94427,0.93236 -1.41634,1.39854 -0.47214,0.46618 -0.81919,1.1037 -1.4164,1.39854 -0.42227,0.20848 -1.08253,-0.32964 -1.41635,0 -0.33388,0.32963 0.33382,1.0689 0,1.39853 -0.33388,0.32965 -1.08252,-0.32963 -1.4164,0 -0.33382,0.32965 -0.33382,1.06891 0,1.39855 0.6677,0.65928 2.16506,-0.65928 2.83275,0 0.33381,0.32963 -0.33383,1.0689 0,1.39853 0.94942,0.93748 1.88332,-0.93747 2.83274,0 0.33383,0.32964 -0.33382,1.0689 0,1.39854 0.33383,0.32964 1.08252,-0.32964 1.41635,0 0.33388,0.32964 -0.33383,1.0689 0,1.39853 0.33388,0.32965 1.08257,-0.32963 1.4164,0 0.33382,0.32965 -0.33383,1.0689 0,1.39855 2.93049,2.89362 -0.11448,-4.42185 2.83274,1.39853 0.21112,0.41697 -0.33388,1.0689 0,1.39854 0.33383,0.32964 1.08252,-0.32964 1.41635,0 0.38756,0.38268 -0.38419,4.83546 0,5.59415 0.29861,0.58969 1.11776,0.80886 1.4164,1.39854 0.21548,0.42562 0,3.56578 0,4.19562 0,3.26326 0,6.52651 0,9.78977 0,0.33916 0.0455,4.15062 0,4.1956 -0.33388,0.32964 -1.08258,-0.32964 -1.4164,0 -0.70819,0.69928 0.70819,3.49635 0,4.19562 -0.33383,0.32964 -1.08252,-0.32964 -1.41635,0 -0.6677,0.65928 0.42226,1.96315 0,2.79707 -0.29864,0.58969 -1.11776,0.80887 -1.4164,1.39856 -0.21114,0.41696 0.33388,1.06889 0,1.39853 -0.33382,0.32964 -1.08252,-0.32964 -1.41634,0 -0.66771,0.65928 0.6677,2.13779 0,2.79707 -0.33383,0.32963 -1.08252,-0.32964 -1.4164,0 0,0.46619 0,0.93236 0,1.39855 0,0.46617 0.33388,1.06889 0,1.39854 -0.33383,0.32963 -1.08252,-0.32965 -1.41635,0 -0.33382,0.32963 0.21113,0.98157 0,1.39852 -0.29858,0.58969 -1.11776,0.80886 -1.41634,1.39854 -0.21118,0.41698 0.33382,1.06892 0,1.39853 -3.77702,0 0.47207,-0.46617 -1.4164,1.39856 -0.33383,0.32963 -1.08253,-0.32965 -1.41635,0 -0.33388,0.32963 0.33382,1.06889 0,1.39853 -0.7082,0.69927 -3.54094,-0.69927 -4.24913,0 -0.33383,0.32964 0.33386,1.06889 0,1.39853 -0.43857,0.43306 -6.64328,-0.43303 -7.08184,0 -0.33382,0.32965 0.33386,1.06892 0,1.39855 -0.33382,0.32962 -0.9442,0 -1.41634,0 -0.63791,0 -3.81806,0.21281 -4.24909,0 -0.59722,-0.29483 -0.8192,-1.1037 -1.4164,-1.39855 -0.84457,-0.41696 -2.16505,0.65928 -2.83275,0 -0.33382,-0.32964 0.33388,-1.06889 0,-1.39853 -3.77696,0 0.47213,0.46617 -1.41634,-1.39853 -0.6677,-0.65928 -2.16505,0.65927 -2.83275,0 -0.33382,-0.32965 0.33382,-1.0689 0,-1.39856 -0.33382,-0.32961 -0.99408,0.2085 -1.41635,0 -0.5972,-0.29482 -0.81918,-1.10369 -1.4164,-1.39853 -0.42225,-0.20848 -1.08252,0.32964 -1.41634,0 -0.33386,-0.32964 0.33382,-1.06889 0,-1.39854 -0.33386,-0.32963 -1.08252,0.32965 -1.4164,0 -0.33383,-0.32963 0.33388,-1.06889 0,-1.39852 -0.33383,-0.32965 -0.99407,0.20848 -1.41635,0 -1.19439,-0.58969 -1.63833,-2.20742 -2.83274,-2.79709 -0.42226,-0.20848 -1.08252,0.32963 -1.41635,0 -0.33386,-0.32964 -0.33386,-1.06889 0,-1.39854 0.33383,-0.32964 1.41635,-0.46617 1.41635,0 0,0.46619 -1.88849,0 -1.41635,0 8.02605,0 0.4721,-0.93236 2.83271,1.39854 0.33386,0.32963 1.08256,-0.32964 1.41638,0 0.33383,0.32963 -0.33382,1.06891 0,1.39855 0.33383,0.32964 1.08252,-0.32964 1.41635,0 0.33388,0.32964 0,0.93234 0,1.39854 0,0.62984 0.21556,3.76998 0,4.19559 -0.29856,0.58968 -1.11777,0.80887 -1.41635,1.39856 -0.21112,0.41696 0.33383,1.06889 0,1.39853 -0.66768,0.65928 -2.16504,-0.65928 -2.83274,0 -2.9305,2.89362 4.47822,-0.11304 -1.41635,2.79708 -0.84457,0.41697 -2.16508,-0.6593 -2.83272,0 -0.33388,0.32962 0.33382,1.0689 0,1.39854 -0.33388,0.32964 -0.99409,-0.20848 -1.4164,0 -0.59717,0.29484 -0.81915,1.10369 -1.41635,1.39854 -0.56156,0.27724 -3.95955,-0.28591 -4.24909,0 -0.33388,0.32963 0.33382,1.06889 0,1.39852 -0.70821,0.69928 -3.54094,-0.69925 -4.24915,0 -0.33383,0.32965 0.33388,1.0689 0,1.39856 -0.70815,0.69925 -3.54088,-0.69928 -4.24909,0 -0.33383,0.32962 0.33382,1.0689 0,1.39853 -0.34081,0.33652 -5.32466,-0.33653 -5.66549,0 -0.33382,0.32964 0.33388,1.06889 0,1.39854 -0.34081,0.33653 -5.3246,-0.33653 -5.66543,0 -0.33386,0.32963 0.33382,1.06889 0,1.39853 -0.0643,0.0635 -6.41403,0 -7.08188,0 -0.47207,0 -1.08252,0.32964 -1.41635,0 -0.33382,-0.32964 0.33383,-1.0689 0,-1.39853 -0.70821,-0.69928 -3.54093,0.69926 -4.24909,0 -0.33388,-0.32965 0.33383,-1.0689 0,-1.39854 -0.6677,-0.65928 -2.16504,0.65928 -2.83274,0 -0.33383,-0.32963 0.33382,-1.06891 0,-1.39853 -0.66771,-0.65928 -1.98817,0.41696 -2.83275,0 -0.59719,-0.29484 -0.81919,-1.10371 -1.41634,-1.39856 -0.42232,-0.20848 -1.08258,0.32965 -1.4164,0 -0.33383,-0.32963 0.33382,-1.06889 0,-1.39852 -0.33383,-0.32965 -1.08252,0.32963 -1.41635,0 -0.33386,-0.32965 0.33383,-1.0689 0,-1.39854 -0.33386,-0.32964 -0.99409,0.20848 -1.4164,0 -0.59714,-0.29484 -0.81913,-1.10372 -1.41634,-1.39854 -0.42227,-0.20848 -1.08253,0.32962 -1.41639,0 -0.33382,-0.32963 0.21118,-0.98159 0,-1.39855 -0.18803,-0.37132 -3.87303,-4.00994 -4.24909,-4.19562 -0.42227,-0.20846 -1.08252,0.32966 -1.416338,0 -0.667708,-0.65926 0.667648,-2.13779 0,-2.79707 -0.33388,-0.32963 -1.082522,0.32965 -1.416402,0 -0.667646,-0.65927 0.667699,-2.13781 0,-2.79706 -0.333827,-0.32964 -1.082522,0.32964 -1.416349,0 -0.333819,-0.32964 0,-0.93236 0,-1.39855 0,-0.46618 -0.333819,-1.06889 0,-1.39854 0.333827,-0.32964 1.082522,-0.32964 1.416349,0 0.33388,0.32965 -0.333827,1.0689 0,1.39854 0.33388,0.32963 1.082522,-0.32964 1.416402,0 0.333818,0.32963 -0.33388,1.06891 0,1.39855 0.333818,0.32964 1.082518,-0.32964 1.416338,0 0.33383,0.32964 -0.33382,1.06889 0,1.39854 0.33383,0.32963 1.08252,-0.32965 1.41639,0 0.33381,0.32963 -0.33387,1.06889 0,1.39852 0.33381,0.32965 1.08252,-0.32963 1.41636,0 0.66768,0.65928 -0.66771,2.13781 0,2.79707 0.33382,0.32966 1.08252,-0.32961 1.41634,0 0.0455,0.045 0,3.85644 0,4.19562 0,0.46619 0,0.93236 0,1.39855 0,0.46618 0.33386,1.0689 0,1.39854 -0.33382,0.32964 -1.08252,-0.32964 -1.41634,0 -0.33384,0.32964 0.33382,1.06889 0,1.39854 -0.33384,0.32963 -0.94427,0 -1.41636,0 0,0.46616 0.33381,1.06889 0,1.39852 -0.33387,0.32965 -1.08256,-0.32963 -1.41639,0 -0.33382,0.32965 0.33383,1.0689 0,1.39856 -0.6677,0.65926 -2.165041,-0.65928 -2.83274,0 -0.333827,0.32962 0.33388,1.0689 0,1.39853 -0.667646,0.65928 -2.165043,-0.65928 -2.832751,0 -0.333818,0.32964 0.33388,1.06889 0,1.39854 -0.667646,0.65927 -2.165043,-0.65928 -2.832689,0 -0.33388,0.32963 0.333828,1.06889 0,1.39853 -0.387558,0.38268 -4.897123,-0.37935 -5.665492,0 -0.597192,0.29484 -0.819184,1.10371 -1.416402,1.39853 -0.844516,0.41696 -1.988155,-0.41696 -2.832689,0 -0.597192,0.29485 -0.819184,1.10372 -1.416402,1.39855 -0.890227,0.4395 -4.775239,-0.43951 -5.665466,0 -0.597165,0.29484 -0.819149,1.1037 -1.416349,1.39854 -0.890236,0.43949 -4.775257,-0.43952 -5.665493,0 -0.597156,0.29484 -0.819148,1.10369 -1.41634,1.39853 -0.422262,0.20849 -0.944273,0 -1.416401,0 -0.472085,0 -0.944215,0 -1.416349,0 -1.21568,0 -10.577076,-0.24813 -11.330928,0 -0.633433,0.20849 -0.819183,1.10369 -1.4164,1.39853 -0.422258,0.2085 -0.944212,0 -1.416345,0 -0.472134,0 -0.944267,0 -1.416382,0 -2.360612,0 -4.721224,0 -7.081837,0 -2.360612,0 -4.721225,0 -7.081837,0 -0.472134,0 -0.944267,0 -1.416344,0 -0.472134,0 -0.994144,0.2085 -1.416402,0 -0.597197,-0.29484 -0.819184,-1.10369 -1.416344,-1.39853 -0.422315,-0.20848 -0.994088,0.20849 -1.416401,0 -0.597143,-0.29484 -0.819147,-1.10369 -1.416346,-1.39853 -0.422257,-0.20848 -0.994086,0.20848 -1.416401,0 -1.194358,-0.58969 -1.638331,-2.20741 -2.83269,-2.79709 -0.422313,-0.20848 -1.082577,0.32964 -1.4164,0 -0.333823,-0.32964 0.333823,-1.06889 0,-1.39853 -0.333823,-0.32964 -1.082522,0.32964 -1.416345,0 -0.33386,-0.32964 0.333823,-1.0689 0,-1.39853 -0.33386,-0.32965 -1.082522,0.32963 -1.416382,0 -0.333823,-0.32965 0.33386,-1.0689 0,-1.39854 -0.333823,-0.32963 -1.082541,0.32964 -1.416364,0 -0.333823,-0.32963 0.333823,-1.06891 0,-1.39853 -0.333823,-0.32966 -0.994068,0.20846 -1.416374,0 -0.597161,-0.29484 -0.819147,-1.10371 -1.416345,-1.39856 -0.422277,-0.20848 -1.082522,0.32965 -1.416364,0 -0.333861,-0.32963 0.333842,-1.06889 0,-1.39852 -0.333861,-0.32965 -1.082559,0.32963 -1.416382,0 -0.333823,-0.32965 0.333823,-1.0689 0,-1.39854 -0.333823,-0.32964 -1.082522,0.32964 -1.416345,0 -0.333879,-0.32964 0.333823,-1.06892 0,-1.39854 -0.333879,-0.32963 -1.0825221,0.32962 -1.4164014,0 -0.064262,-0.0635 0,-6.33329 0,-6.9927 0,-0.65941 -0.064262,-6.9293 0,-6.99269 0.3338793,-0.32964 1.0825224,0.32965 1.4164014,0 0.708135,-0.69925 -0.7082103,-3.49634 0,-4.19562 0.333823,-0.32963 1.082522,0.32964 1.416345,0 0.667683,-0.65926 -0.667703,-2.13779 0,-2.79707 0.333823,-0.32964 1.082521,0.32964 1.416382,0 0.667665,-0.65928 -0.667684,-2.13779 0,-2.79707 0.333842,-0.32965 1.082541,0.32962 1.416364,0 0.333822,-0.32965 -0.211139,-0.98159 0,-1.39855 0.298562,-0.58966 1.117765,-0.80885 1.416345,-1.39854 0.211176,-0.41695 -0.211139,-0.98156 0,-1.39852 0.298617,-0.58969 1.117756,-0.80888 1.416374,-1.39854 0.211138,-0.41698 -0.333823,-1.06892 0,-1.39855 0.333823,-0.32964 1.082541,0.32963 1.416364,0 0.942375,-0.93052 -0.942394,-1.86656 0,-2.79707 0.33386,-0.32964 0.994068,0.20848 1.416382,0 0.597161,-0.29484 0.819147,-1.10371 1.416345,-1.39855 3.304879,-1.63162 1.4164,6.99271 1.4164,-5.59413 z"
       id="path3684"
       inkscape:connector-curvature="0" />
  </g>
  <g
     inkscape:label="Layer 1"
     inkscape:groupmode="layer"
     id="layer1">
    <text
       xml:space="preserve"
       style="font-style:normal;font-weight:normal;font-size:106.25112915px;line-height:1.25;font-family:sans-serif;letter-spacing:0px;word-spacing:0px;fill:#000000;fill-opacity:1;stroke:none;stroke-width:2.65627813"
       x="24.320293"
       y="137.74931"
       id="text3682"
       transform="scale(0.74554691,1.3412972)"><tspan
         sodipodi:role="line"
         id="tspan3680"
         x="24.320293"
         y="137.74931"
         style="stroke-width:2.65627813">WFS</tspan></text>
  </g>
</svg>
